<svg width="374" height="343" viewBox="0 0 374 343" fill="none"
     xmlns="http://www.w3.org/2000/svg">
    <path
            d="M186.813 342.802L159.725 318.517C128.279 290.183 102.28 265.742 81.7308 245.192C61.1814 224.643 44.8352 206.195 32.6923 189.849C20.5495 173.503 12.065 158.48 7.23902 144.78C2.41301 131.081 0 117.07 0 102.747C0 73.4799 9.8077 49.0385 29.4231 29.4231C49.0385 9.8077 73.4799 0 102.747 0C118.938 0 134.35 3.42491 148.984 10.2747C163.617 17.1246 176.227 26.7766 186.813 39.2308C197.399 26.7766 210.009 17.1246 224.643 10.2747C239.277 3.42491 254.689 0 270.879 0C300.147 0 324.588 9.8077 344.204 29.4231C363.819 49.0385 373.627 73.4799 373.627 102.747C373.627 117.07 371.214 131.081 366.388 144.78C361.562 158.48 353.077 173.503 340.934 189.849C328.791 206.195 312.445 224.643 291.896 245.192C271.346 265.742 245.348 290.183 213.901 318.517L186.813 342.802ZM186.813 292.363C216.703 265.586 241.301 242.624 260.605 223.475C279.909 204.327 295.165 187.67 306.374 173.503C317.583 159.336 325.367 146.726 329.726 135.673C334.085 124.62 336.264 113.645 336.264 102.747C336.264 84.066 330.037 68.4982 317.583 56.044C305.128 43.5898 289.561 37.3627 270.879 37.3627C256.246 37.3627 242.702 41.4881 230.247 49.7391C217.793 57.99 209.231 68.4982 204.561 81.2638H169.066C164.396 68.4982 155.833 57.99 143.379 49.7391C130.925 41.4881 117.381 37.3627 102.747 37.3627C84.066 37.3627 68.4982 43.5898 56.044 56.044C43.5898 68.4982 37.3627 84.066 37.3627 102.747C37.3627 113.645 39.5422 124.62 43.9011 135.673C48.2601 146.726 56.044 159.336 67.2528 173.503C78.4616 187.67 93.718 204.327 113.022 223.475C132.326 242.624 156.923 265.586 186.813 292.363Z"
            fill="#2B3B37" fill-opacity="0.5"/>
</svg>